# Blender 3.3.1
# www.blender.org
mtllib untitled.mtl
o Object_2
v 0.057943 17.855347 19.088058
v 0.057943 20.802423 22.128845
v 0.057943 -20.127148 19.088057
v 0.057943 -23.074230 -23.142948
v 0.057943 20.802425 -23.142948
v 0.057943 -20.127148 -20.102158
v 0.563333 17.855347 19.088058
v 0.563333 20.802423 22.128845
v 0.563333 17.855347 -20.102158
v 0.563333 20.802425 -23.142948
v 0.529387 -23.074230 19.088057
v 0.091889 -23.074230 19.088057
v 0.563333 -23.074230 22.128843
v 0.091889 20.802423 19.088058
v 0.091889 20.802425 -20.102158
v 0.057943 -23.074230 22.128843
v 0.091889 17.855347 -23.142948
v 0.057943 17.855347 -20.102158
v 0.563333 -23.074230 -23.142948
v 0.091889 -23.074230 -20.102158
v 0.529387 -23.074230 -20.102158
v 0.091889 17.855347 22.128845
v 0.091889 -20.127148 22.128843
v 0.091889 -20.127148 -23.142948
v 0.529393 17.855347 -23.142948
v 0.529393 -20.127148 -23.142948
v 0.563333 -20.127148 19.088057
v 0.091889 17.855347 19.088058
v 0.529387 17.855347 19.088058
v 0.529387 20.802423 19.088058
v 0.091889 17.855347 -20.102158
v 0.529387 -20.127148 19.088057
v 0.529393 -20.127148 19.088057
v 0.529393 -20.127148 22.128843
v 0.563333 -20.127148 -20.102158
v 0.091889 -20.127148 19.088057
v 0.091889 -20.127148 -20.102158
v 0.529393 17.855347 22.128845
v 0.529393 -20.127148 -20.102158
v 0.529387 -20.127148 -20.102158
v 0.529387 17.855347 -20.102158
v 0.529387 20.802425 -20.102158
v 0.529393 17.855347 19.088058
v 0.529393 17.855347 -20.102158
v 0.529393 17.855347 -20.102158
v 0.529393 17.855347 -20.102158
v 0.529393 -20.127148 -20.102158
v 0.529393 -20.127148 -20.102158
v 0.529393 17.855347 19.088058
v 0.529393 17.855347 19.088058
v 0.529393 -20.127148 19.088057
v 0.529393 -20.127148 19.088057
v 0.529393 17.855347 22.128845
v 0.529393 17.855347 22.128845
v 0.529393 -20.127148 22.128843
v 0.529393 -20.127148 22.128843
v 0.529393 -20.127148 -23.142948
v 0.529393 -20.127148 -23.142948
v 0.529393 17.855347 -23.142948
v 0.529393 17.855347 -23.142948
v 0.563333 -20.127148 -20.102158
v 0.563333 -20.127148 -20.102158
v 0.563333 17.855347 -20.102158
v 0.563333 17.855347 -20.102158
v 0.563333 20.802425 -23.142948
v 0.563333 20.802425 -23.142948
v 0.563333 -23.074230 -23.142948
v 0.563333 -23.074230 -23.142948
v 0.563333 20.802423 22.128845
v 0.563333 20.802423 22.128845
v 0.563333 -23.074230 22.128843
v 0.563333 -23.074230 22.128843
v 0.529387 -20.127148 19.088057
v 0.529387 -20.127148 19.088057
v 0.529387 20.802423 19.088058
v 0.529387 20.802423 19.088058
v 0.529387 17.855347 19.088058
v 0.529387 17.855347 19.088058
v 0.529387 -23.074230 19.088057
v 0.529387 -23.074230 19.088057
v 0.091889 -20.127148 -20.102158
v 0.091889 -20.127148 -20.102158
v 0.091889 -20.127148 -20.102158
v 0.091889 -20.127148 -20.102158
v 0.091889 -20.127148 -20.102158
v 0.091889 17.855347 -20.102158
v 0.091889 17.855347 -20.102158
v 0.091889 17.855347 -20.102158
v 0.091889 17.855347 -20.102158
v 0.091889 17.855347 -20.102158
v 0.091889 20.802425 -20.102158
v 0.091889 20.802425 -20.102158
v 0.091889 -23.074230 -20.102158
v 0.091889 -23.074230 -20.102158
v 0.563333 -20.127148 19.088057
v 0.563333 -20.127148 19.088057
v 0.563333 17.855347 19.088058
v 0.563333 17.855347 19.088058
v 0.057943 -20.127148 -20.102158
v 0.057943 -20.127148 -20.102158
v 0.057943 17.855347 -20.102158
v 0.057943 17.855347 -20.102158
v 0.057943 -23.074230 -23.142948
v 0.057943 -23.074230 -23.142948
v 0.057943 20.802425 -23.142948
v 0.057943 20.802425 -23.142948
v 0.057943 20.802423 22.128845
v 0.057943 20.802423 22.128845
v 0.057943 -23.074230 22.128843
v 0.057943 -23.074230 22.128843
v 0.057943 17.855347 19.088058
v 0.057943 17.855347 19.088058
v 0.057943 -20.127148 19.088057
v 0.057943 -20.127148 19.088057
v 0.091889 -20.127148 19.088057
v 0.091889 -20.127148 19.088057
v 0.091889 -20.127148 19.088057
v 0.091889 -20.127148 19.088057
v 0.091889 -20.127148 19.088057
v 0.091889 17.855347 19.088058
v 0.091889 17.855347 19.088058
v 0.091889 17.855347 19.088058
v 0.091889 17.855347 19.088058
v 0.091889 17.855347 19.088058
v 0.091889 -23.074230 19.088057
v 0.091889 -23.074230 19.088057
v 0.091889 20.802423 19.088058
v 0.091889 20.802423 19.088058
v 0.091889 -20.127148 -23.142948
v 0.091889 -20.127148 -23.142948
v 0.091889 17.855347 22.128845
v 0.091889 17.855347 22.128845
v 0.091889 -20.127148 22.128843
v 0.091889 -20.127148 22.128843
v 0.091889 17.855347 -23.142948
v 0.091889 17.855347 -23.142948
v 0.529387 20.802425 -20.102158
v 0.529387 20.802425 -20.102158
v 0.529387 17.855347 -20.102158
v 0.529387 17.855347 -20.102158
v 0.529387 -20.127148 -20.102158
v 0.529387 -20.127148 -20.102158
v 0.529387 -23.074230 -20.102158
v 0.529387 -23.074230 -20.102158
vn -1.0000 -0.0000 -0.0000
vn 1.0000 -0.0000 -0.0000
vn -0.0000 -1.0000 -0.0000
vn -0.0000 1.0000 -0.0000
vn -0.0000 -0.0000 -1.0000
vn -0.0000 -0.0000 1.0000
vn -0.0002 -0.0000 -1.0000
vn 0.0002 -0.0000 -1.0000
s 1
usemtl Scene_-_Root
f 1//1 3//1 2//1
s 0
f 4//1 6//1 5//1
s 1
f 7//2 9//2 8//2
s 0
f 10//2 8//2 9//2
f 11//3 13//3 12//3
f 14//4 15//4 107//4
f 105//4 107//4 15//4
f 3//1 6//1 16//1
f 4//1 16//1 6//1
f 106//5 65//5 17//5
f 5//1 18//1 2//1
s 1
f 18//1 5//1 6//1
f 1//1 2//1 18//1
s 0
f 16//1 2//1 3//1
f 19//3 21//3 20//3
f 22//6 108//6 23//6
f 103//5 106//5 24//5
f 25//7 65//7 26//7
f 71//2 27//2 8//2
s 1
f 7//2 8//2 27//2
f 28//5 30//5 29//5
f 28//5 127//5 30//5
f 91//2 120//2 31//2
f 91//2 128//2 120//2
s 0
f 32//4 34//4 33//4
f 67//5 26//5 65//5
f 24//5 26//5 67//5
s 1
f 10//2 9//2 35//2
s 0
f 113//5 121//5 36//5
f 113//5 111//5 121//5
f 11//3 21//3 13//3
f 13//3 21//3 19//3
f 72//6 55//6 23//6
f 17//5 65//5 25//5
f 79//5 115//5 73//5
f 79//5 125//5 115//5
f 71//2 35//2 27//2
f 10//2 35//2 68//2
f 71//2 68//2 35//2
f 17//8 24//8 106//8
f 122//3 77//3 131//3
s 1
f 67//5 103//5 24//5
s 0
f 109//3 12//3 13//3
f 109//3 20//3 12//3
f 19//3 20//3 104//3
f 109//3 104//3 20//3
f 101//6 37//6 86//6
f 101//6 99//6 37//6
f 38//6 55//6 69//6
f 72//6 69//6 55//6
f 39//4 57//4 40//4
f 129//4 40//4 57//4
f 133//4 32//4 116//4
f 133//4 34//4 32//4
f 81//4 40//4 129//4
s 1
f 117//4 100//4 114//4
f 117//4 82//4 100//4
s 0
f 75//4 14//4 70//4
s 1
f 41//6 92//6 87//6
f 41//6 42//6 92//6
s 0
f 97//3 43//3 63//3
f 63//3 43//3 44//3
f 77//3 44//3 43//3
s 1
f 77//3 139//3 44//3
s 0
f 141//1 80//1 74//1
f 141//1 143//1 80//1
f 93//6 142//6 83//6
f 93//6 144//6 142//6
f 105//4 15//4 66//4
f 137//4 66//4 15//4
s 1
f 88//3 112//3 102//3
f 88//3 123//3 112//3
s 0
f 135//3 139//3 89//3
f 108//6 22//6 69//6
f 38//6 69//6 22//6
f 43//3 53//3 77//3
f 131//3 77//3 53//3
s 1
f 76//1 140//1 78//1
f 76//1 138//1 140//1
s 0
f 66//4 137//4 70//4
f 75//4 70//4 137//4
f 107//4 70//4 14//4
f 110//6 23//6 108//6
f 139//3 59//3 44//3
f 139//3 135//3 59//3
f 49//5 95//5 51//5
f 49//5 98//5 95//5
s 1
f 110//6 72//6 23//6
f 132//2 118//2 124//2
f 132//2 134//2 118//2
f 130//2 90//2 84//2
f 130//2 136//2 90//2
f 50//1 56//1 54//1
f 50//1 52//1 56//1
s 0
f 119//2 94//2 85//2
f 119//2 126//2 94//2
f 47//6 64//6 45//6
f 47//6 61//6 64//6
s 1
f 58//1 46//1 60//1
f 58//1 48//1 46//1
s 0
f 62//4 39//4 96//4
f 96//4 39//4 33//4
f 40//4 33//4 39//4
f 40//4 32//4 33//4
